<?xml version="1.0" encoding="UTF-8" standalone="no"?>
<!-- Created with Inkscape (http://www.inkscape.org/) -->

<svg
   width="13.178856mm"
   height="15.75067mm"
   viewBox="0 0 13.178856 15.75067"
   version="1.1"
   id="svg9165"
   inkscape:version="1.2.2 (732a01da63, 2022-12-09)"
   sodipodi:docname="momentoicon.svg"
   xmlns:inkscape="http://www.inkscape.org/namespaces/inkscape"
   xmlns:sodipodi="http://sodipodi.sourceforge.net/DTD/sodipodi-0.dtd"
   xmlns="http://www.w3.org/2000/svg"
   xmlns:svg="http://www.w3.org/2000/svg">
  <sodipodi:namedview
     id="namedview9167"
     pagecolor="#ffffff"
     bordercolor="#000000"
     borderopacity="0.25"
     inkscape:showpageshadow="2"
     inkscape:pageopacity="0.0"
     inkscape:pagecheckerboard="0"
     inkscape:deskcolor="#d1d1d1"
     inkscape:document-units="mm"
     showgrid="false"
     inkscape:zoom="5.472816"
     inkscape:cx="22.109276"
     inkscape:cy="32.889832"
     inkscape:window-width="1366"
     inkscape:window-height="697"
     inkscape:window-x="-8"
     inkscape:window-y="-8"
     inkscape:window-maximized="1"
     inkscape:current-layer="layer1" />
  <defs
     id="defs9162" />
  <g
     inkscape:label="Layer 1"
     inkscape:groupmode="layer"
     id="layer1"
     transform="translate(-48.04195,-156.90137)">
    <path
       id="path7670"
       style="fill:#0000ff;fill-opacity:1;stroke:none;stroke-width:0.264583;stroke-linecap:round;stroke-miterlimit:50;paint-order:markers stroke fill;stop-color:#000000"
       d="M 56.636774 156.90137 L 56.350487 158.11318 L 60.361095 158.11318 L 60.074807 156.90137 L 56.636774 156.90137 z M 56.063683 159.32448 L 55.777395 160.53629 L 60.934186 160.53629 L 60.647899 159.32448 L 56.063683 159.32448 z M 55.490591 161.74759 L 55.204304 162.9594 L 57.496153 162.9594 L 57.782957 161.74759 L 55.490591 161.74759 z M 58.928624 161.74759 L 58.642337 162.9594 L 60.934186 162.9594 L 61.220991 161.74759 L 58.928624 161.74759 z M 54.918016 164.17069 L 54.631212 165.38251 L 56.923062 165.38251 L 57.209866 164.17069 L 54.918016 164.17069 z M 58.355532 164.17069 L 58.069245 165.38251 L 60.361095 165.38251 L 60.647899 164.17069 L 58.355532 164.17069 z M 54.344924 166.5938 L 54.344924 167.80561 L 56.636774 167.80561 L 56.636774 166.5938 L 54.344924 166.5938 z M 57.782957 166.5938 L 57.496153 167.80561 L 59.78852 167.80561 L 60.074807 166.5938 L 57.782957 166.5938 z M 54.631212 169.01743 L 54.918016 170.22872 L 59.215428 170.22872 L 59.501716 169.01743 L 57.209866 169.01743 L 56.923062 169.01743 L 54.631212 169.01743 z M 55.204304 171.44053 L 55.490591 172.65183 L 58.642337 172.65183 L 58.928624 171.44053 L 55.204304 171.44053 z " />
    <path
       id="path9768"
       style="fill:#ff0000;fill-opacity:1;stroke:none;stroke-width:0.264583;stroke-linecap:round;stroke-miterlimit:50;paint-order:markers stroke fill;stop-color:#000000"
       d="M 50.3338 156.90137 L 50.047512 158.11318 L 51.76627 158.11318 L 51.479983 156.90137 L 50.3338 156.90137 z M 53.771833 156.90137 L 53.485545 158.11318 L 55.204304 158.11318 L 54.918016 156.90137 L 53.771833 156.90137 z M 49.760708 159.32448 L 49.474421 160.53629 L 52.339362 160.53629 L 52.053075 159.32448 L 49.760708 159.32448 z M 53.198741 159.32448 L 52.912454 160.53629 L 55.204304 160.53629 L 55.490591 159.32448 L 53.198741 159.32448 z M 49.188133 161.74759 L 48.901329 162.9594 L 54.631212 162.9594 L 54.918016 161.74759 L 49.188133 161.74759 z M 48.615042 164.17069 L 48.328237 165.38251 L 50.620604 165.38251 L 50.906891 164.17069 L 48.615042 164.17069 z M 52.053075 164.17069 L 51.76627 165.38251 L 54.05812 165.38251 L 54.344924 164.17069 L 52.053075 164.17069 z M 48.04195 166.5938 L 48.04195 167.80561 L 50.3338 167.80561 L 50.3338 166.5938 L 48.04195 166.5938 z M 51.479983 166.5938 L 51.479983 167.80561 L 53.771833 167.80561 L 53.771833 166.5938 L 51.479983 166.5938 z M 48.328237 169.01743 L 48.615042 170.22872 L 50.906891 170.22872 L 50.620604 169.01743 L 48.328237 169.01743 z M 51.76627 169.01743 L 52.053075 170.22872 L 54.344924 170.22872 L 54.05812 169.01743 L 51.76627 169.01743 z M 48.901329 171.44053 L 49.188133 172.65183 L 51.479983 172.65183 L 51.193179 171.44053 L 48.901329 171.44053 z M 52.339362 171.44053 L 52.62565 172.65183 L 54.918016 172.65183 L 54.631212 171.44053 L 52.339362 171.44053 z " />
  </g>
</svg>
