<?xml version="1.0" encoding="UTF-8" standalone="no"?>
<!-- Created with Inkscape (http://www.inkscape.org/) -->

<svg
   width="40.109474mm"
   height="20.596951mm"
   viewBox="0 0 40.109473 20.59695"
   version="1.1"
   id="svg9165"
   inkscape:version="1.2.2 (732a01da63, 2022-12-09)"
   sodipodi:docname="momentologo.svg"
   xmlns:inkscape="http://www.inkscape.org/namespaces/inkscape"
   xmlns:sodipodi="http://sodipodi.sourceforge.net/DTD/sodipodi-0.dtd"
   xmlns="http://www.w3.org/2000/svg"
   xmlns:svg="http://www.w3.org/2000/svg">
  <sodipodi:namedview
     id="namedview9167"
     pagecolor="#ffffff"
     bordercolor="#000000"
     borderopacity="0.25"
     inkscape:showpageshadow="2"
     inkscape:pageopacity="0.0"
     inkscape:pagecheckerboard="0"
     inkscape:deskcolor="#d1d1d1"
     inkscape:document-units="mm"
     showgrid="false"
     inkscape:zoom="3.8698653"
     inkscape:cx="80.235351"
     inkscape:cy="44.187584"
     inkscape:window-width="1366"
     inkscape:window-height="697"
     inkscape:window-x="-8"
     inkscape:window-y="-8"
     inkscape:window-maximized="1"
     inkscape:current-layer="layer1" />
  <defs
     id="defs9162" />
  <g
     inkscape:label="Layer 1"
     inkscape:groupmode="layer"
     id="layer1"
     transform="translate(-48.04195,-156.90137)">
    <path
       id="path7670"
       style="fill:#ffd700;fill-opacity:1;stroke:none;stroke-width:0.264583;stroke-linecap:round;stroke-miterlimit:50;paint-order:markers stroke fill;stop-color:#000000"
       d="m 50.333851,156.90137 -0.28652,1.21157 h 1.718986 l -0.286518,-1.21157 z m 3.437972,0 -0.286518,1.21157 h 1.718986 l -0.28652,-1.21157 z m 2.864934,0 -0.286517,1.21157 h 4.011009 l -0.286517,-1.21157 z m 18.335814,0 0.28652,1.21157 h 6.302907 l -0.286518,-1.21157 z m 8.594807,0 -0.286517,1.21157 h 4.011134 l -0.28652,-1.21157 z m -33.806442,2.42314 -0.286517,1.21157 h 2.864935 l -0.286517,-1.21157 z m 3.437975,0 -0.28652,1.21157 h 2.2919 l 0.286518,-1.21157 z m 2.864935,0 -0.286518,1.21157 h 5.156958 l -0.286517,-1.21157 z m 19.481762,0 0.286518,1.21157 h 2.2919 2.292023 1.718986 l -0.286518,-1.21157 z m 7.448858,0 -0.286519,1.21157 h 5.15696 l -0.28652,-1.21157 z m -33.806567,2.42327 -0.286517,1.21157 h 5.729872 l 0.286517,-1.21157 z m 6.30291,0 -0.286518,1.21157 h 2.291898 l 0.28652,-1.21157 z m 3.437972,0 -0.286518,1.21157 h 2.292023 l 0.28652,-1.21157 z m 2.864937,0 -0.28652,1.21157 h 1.719111 l -0.286517,-1.21157 z m 3.437972,0 -0.286518,1.21157 h 1.718986 l -0.286519,-1.21157 z m 2.864935,0 -0.286518,1.21157 h 4.584047 l 0.286519,-1.21157 z m 5.15696,0 -0.28652,1.21157 h 5.157086 l -0.28652,-1.21157 z m 5.156958,0 0.28652,1.21157 h 2.292023 l -0.28652,-1.21157 z m 4.010886,0 -0.286519,1.21157 h 2.2919 l 0.286517,-1.21157 z m 3.437972,0 -0.286517,1.21157 h 2.292023 l 0.286517,-1.21157 z m -37.244536,2.42314 -0.286395,1.21157 h 2.291898 l 0.28652,-1.21157 z m 3.437972,0 -0.28652,1.21157 h 2.292023 l 0.28652,-1.21157 z m 2.864934,0 -0.286394,1.21157 h 2.2919 l 0.286395,-1.21157 z m 3.437975,0 -0.286395,1.21157 h 2.291898 l 0.28652,-1.21157 z m 2.864935,0 -0.286395,1.21157 h 2.864935 l -0.286392,-1.21157 z m 3.437972,0 -0.286395,1.21157 h 2.2919 l 0.286518,-1.21157 z m 2.86506,0 -0.286517,1.21157 h 4.58392 l 0.28652,-1.21157 z m 5.156835,0 -0.286394,1.21157 h 2.2919 1.146072 2.2919 l 0.286517,-1.21157 z m 6.303032,0 v 1.21144 l 2.2919,1.3e-4 v -1.21157 z m 2.864812,0 -0.286394,1.21157 h 2.2919 l 0.286517,-1.21157 z m 3.437972,0 -0.286394,1.21157 h 2.2919 l 0.286517,-1.21157 z m -37.244414,2.42314 v 1.21157 h 2.291901 v -1.21157 z m 3.437849,0 v 1.21157 h 2.292024 v -1.21157 z m 2.865061,0 v 1.21157 h 2.291897 v -1.21157 z m 3.437972,0 -0.286518,1.21157 h 2.292023 l 0.286395,-1.21157 z m 2.864937,0 -0.28652,1.21157 h 2.292023 1.145949 2.2919 l 0.286518,-1.21157 h -2.291898 z m 6.302907,0 -0.286518,1.21157 h 2.292024 l 0.286394,-1.21145 2.292023,-1.2e-4 z m 5.15696,0 -0.28652,1.21157 h 2.291901 l 0.286517,-1.21157 z m 3.437972,0 -0.286517,1.21157 h 2.291898 l 0.286517,-1.21157 z m 3.151455,0 -0.28652,1.21157 h 2.2919 l 0.286518,-1.21157 z m 2.578417,0 v 1.21157 h 2.291898 v -1.21157 z m 3.437972,0 -0.286517,1.21157 h 2.292023 l 0.286392,-1.21157 z m -36.384982,2.42314 0.286517,1.2117 h 2.291901 l -0.28652,-1.2117 z m 3.437847,0 0.28652,1.2117 h 2.292023 l -0.28652,-1.2117 z m 2.86506,0 0.28652,1.2117 H 59.2153 l 0.286518,-1.2117 h -2.292023 -0.286518 z m 5.443355,0 -0.28652,1.2117 h 2.292023 l 0.28652,-1.2117 z m 3.437972,0 -0.28652,1.2117 h 2.292026 l 0.286517,-1.2117 z m 2.86506,0 -0.286517,1.2117 4.583921,-1.3e-4 0.286517,-1.21157 h -2.292023 z m 5.156835,0 -0.28652,1.2117 h 2.292023 l 0.28652,-1.2117 z m 3.438097,0 -0.286519,1.2117 h 2.2919 l 0.286517,-1.2117 z m 3.15133,0 -0.28652,1.2117 h 2.2919 l 0.286518,-1.2117 z m 3.437972,0 0.286519,1.2117 h 4.297404 l 0.286517,-1.2117 h -2.292023 -0.286517 z m -32.660616,2.42327 0.286517,1.21145 h 2.2919 l -0.286519,-1.21145 z m 3.437972,0 0.28652,1.21145 h 2.291897 l -0.286517,-1.21145 z m 2.864937,0 0.286518,1.21157 h 3.151454 l 0.286518,-1.21157 z m 4.297527,0 v 1.21145 h 2.2919 v -1.21145 z m 3.437849,0 v 1.21145 h 2.292023 v -1.21145 z m 2.86506,0 v 1.21157 h 2.291898 v -1.21157 z m 5.156958,0 v 1.21145 h 2.2919 v -1.21145 z m 3.437974,0 v 1.21157 h 2.291898 v -1.21157 z m 3.151455,0 -0.28652,1.21145 h 2.2919 l 0.286518,-1.21145 z m 4.583796,0 0.286519,1.21157 h 3.151455 l 0.286517,-1.21157 z m -22.346573,2.42314 0.286518,1.21157 h 2.2919 l -0.28652,-1.21157 z m 3.437847,0 0.28652,1.21157 h 2.292023 l -0.286517,-1.21157 z m 2.865063,0 0.286392,1.21157 h 4.583923 l -0.286394,-1.21157 z m 5.156958,0 0.286517,1.21157 h 2.2919 l -0.28652,-1.21157 z m 3.437972,0 0.286394,1.21157 h 2.292023 l -0.286517,-1.21157 z m -14.324928,2.42314 0.28652,1.21157 h 2.291898 l -0.286518,-1.21157 z m 3.437972,0 0.28652,1.21157 h 2.291898 l -0.286518,-1.21157 z m 2.864937,0 0.286518,1.21157 h 4.583923 l -0.28652,-1.21157 z m 5.156958,0 0.28652,1.21157 h 2.292023 l -0.286519,-1.21157 z m 3.437975,0 0.286517,1.21157 h 2.292023 l -0.286517,-1.21157 z"
       sodipodi:nodetypes="ccccccccccccccccccccccccccccccccccccccccccccccccccccccccccccccccccccccccccccccccccccccccccccccccccccccccccccccccccccccccccccccccccccccccccccccccccccccccccccccccccccccccccccccccccccccccccccccccccccccccccccccccccccccccccccccccccccccccccccccccccccccccccccccccccccccccccccccccccccccccccccccccccccccccccccccccccccccccccccccccccccccccccccccccccccccccccccccccccccccccccccccccccccc" />
  </g>
</svg>
