<?xml version="1.0" encoding="UTF-8" standalone="no"?>
<!-- Created with Inkscape (http://www.inkscape.org/) -->

<svg
   width="41.542168mm"
   height="20.5972mm"
   viewBox="0 0 41.542166 20.5972"
   version="1.1"
   id="svg9165"
   inkscape:version="1.2.2 (732a01da63, 2022-12-09)"
   sodipodi:docname="momentologo.svg"
   xmlns:inkscape="http://www.inkscape.org/namespaces/inkscape"
   xmlns:sodipodi="http://sodipodi.sourceforge.net/DTD/sodipodi-0.dtd"
   xmlns="http://www.w3.org/2000/svg"
   xmlns:svg="http://www.w3.org/2000/svg">
  <sodipodi:namedview
     id="namedview9167"
     pagecolor="#ffffff"
     bordercolor="#000000"
     borderopacity="0.25"
     inkscape:showpageshadow="2"
     inkscape:pageopacity="0.0"
     inkscape:pagecheckerboard="0"
     inkscape:deskcolor="#d1d1d1"
     inkscape:document-units="mm"
     showgrid="false"
     inkscape:zoom="1.9349327"
     inkscape:cx="42.120329"
     inkscape:cy="12.403532"
     inkscape:window-width="1366"
     inkscape:window-height="697"
     inkscape:window-x="-8"
     inkscape:window-y="-8"
     inkscape:window-maximized="1"
     inkscape:current-layer="layer1" />
  <defs
     id="defs9162" />
  <g
     inkscape:label="Layer 1"
     inkscape:groupmode="layer"
     id="layer1"
     transform="translate(-48.04195,-180.78363)">
    <path
       id="path14787"
       style="fill:#ffd700;fill-opacity:1;stroke:none;stroke-width:0.264583;stroke-linecap:round;stroke-miterlimit:50;paint-order:markers stroke fill;stop-color:#000000"
       d="m 50.3338,180.78363 -0.286288,1.21182 h 1.718758 l -0.286287,-1.21182 z m 3.438033,0 -0.286288,1.21182 h 1.718759 l -0.286288,-1.21182 z m 2.864941,0 -0.286287,1.21182 h 4.010608 l -0.286288,-1.21182 z m 22.919531,0.001 -0.286804,1.21129 h 4.871021 l 0.286804,-1.21129 z m 5.443596,0 -0.286288,1.21129 h 4.011125 l -0.286804,-1.21129 z m -35.239193,2.42207 -0.286287,1.21181 h 2.864941 l -0.286287,-1.21181 z m 3.438033,0 -0.286287,1.21181 h 2.29185 l 0.286287,-1.21181 z m 2.864942,0 -0.286288,1.21181 h 5.156791 l -0.286287,-1.21181 z m 22.919531,5.2e-4 -0.286288,1.21129 4.870504,5.2e-4 0.286804,-1.2113 z m 5.444112,5.1e-4 -0.286804,1.2113 h 5.156791 l -0.286287,-1.2113 z m -35.239193,2.4226 -0.286804,1.21129 h 5.729883 l 0.286804,-1.21129 z m 6.302458,0 -0.286287,1.21129 h 2.291849 l 0.286804,-1.21129 z m 3.438033,0 -0.286287,1.21129 h 2.291849 l 0.286805,-1.21129 z m 2.864941,0 -0.286287,1.21129 h 1.719275 l -0.286804,-1.21129 z m 3.438033,0 -0.286287,1.21129 h 1.718758 l -0.286287,-1.21129 z m 2.864942,0 -0.286288,1.21129 h 4.5837 l 0.286804,-1.21129 z m 5.156791,0 -0.286287,1.21181 h 5.156791 l -0.286288,-1.21181 z m 6.590295,0 -0.286804,1.21129 h 2.29185 l 0.286804,-1.21129 z m 4.010608,5.1e-4 -0.286804,1.2113 h 2.29185 l 0.286804,-1.2113 z m 3.438033,0 -0.286804,1.2113 h 2.29185 l 0.286804,-1.2113 z m -14.611511,2.42208 0.286288,1.21181 h 5.729882 l -0.286287,-1.21181 z m -24.065714,5.1e-4 -0.286805,1.2113 h 2.292367 l 0.286287,-1.2113 z m 3.438033,0 -0.286805,1.2113 h 2.29185 l 0.286804,-1.2113 z m 2.864941,0 -0.286804,1.2113 h 2.29185 l 0.286804,-1.2113 z m 3.437516,0 -0.286287,1.2113 h 2.29185 l 0.286804,-1.2113 z m 2.864942,0 -0.286288,1.2113 h 2.864942 l -0.286288,-1.2113 z m 3.438033,0 -0.286288,1.2113 h 2.29185 l 0.286804,-1.2113 z m 2.865458,0 -0.286804,1.2113 h 4.583699 l 0.286805,-1.2113 z m 11.74657,0 v 1.21182 l 2.29185,-5.2e-4 v -1.2113 z m 4.010608,5.2e-4 -0.286288,1.21181 h 2.29185 l 0.286287,-1.21181 z m 3.438033,0 -0.286804,1.21181 h 2.291849 l 0.286805,-1.21181 z m -38.677226,2.42259 v 1.2113 h 2.29185 v -1.2113 z m 3.438033,0 v 1.2113 h 2.29185 v -1.2113 z m 2.864941,0 v 1.2113 h 2.29185 v -1.2113 z m 3.438033,0 -0.286804,1.2113 h 2.292367 l 0.286287,-1.2113 z m 2.864942,0 -0.286804,1.2113 h 5.729883 l 0.286804,-1.2113 z m 6.302974,0 -0.286804,1.2113 h 2.292367 l 0.286287,-1.2113 z m 6.302458,0 0.286804,1.2113 h 2.29185 l -0.286804,-1.2113 z m 3.438033,0 0.286287,1.2113 h 2.292367 l -0.286804,-1.2113 z m 2.865458,0 0.286804,1.21181 h 2.29185 l -0.286804,-1.21181 z m 3.151229,5.2e-4 v 1.21181 h 2.29185 v -1.21181 z m 3.438033,0 -0.286287,1.21181 h 2.291849 l 0.286288,-1.21181 z m -37.817847,2.42259 0.286805,1.21181 h 2.291849 l -0.286287,-1.21181 z m 3.438033,0 0.286805,1.21181 h 2.291849 l -0.286804,-1.21181 z m 2.864942,0 0.286804,1.21181 h 4.297412 l 0.286288,-1.21181 z m 5.443595,0 -0.286804,1.21181 h 2.292367 l 0.286287,-1.21181 z m 3.438033,0 -0.286804,1.21181 h 2.292367 l 0.286287,-1.21181 z m 2.864942,0 -0.286288,1.21181 4.5837,-5.1e-4 0.286287,-1.2113 z m 7.448641,0 0.286804,1.2113 h 2.29185 l -0.286805,-1.2113 z m 3.438033,0 0.286287,1.2113 h 2.292367 l -0.286805,-1.2113 z m 2.865458,0 0.286804,1.21181 h 2.29185 l -0.286804,-1.21181 z m 2.864941,5.2e-4 0.286288,1.21181 h 4.297412 l 0.286287,-1.21181 z m -34.093526,2.42259 0.286804,1.21129 h 2.29185 l -0.286804,-1.21129 z m 3.438033,0 0.286288,1.21129 h 2.292366 l -0.286804,-1.21129 z m 2.864942,0 0.286287,1.21181 h 3.151746 l 0.286287,-1.21181 z m 4.297412,0 v 1.21129 h 2.291849 v -1.21129 z m 3.438033,0 v 1.21129 h 2.291849 v -1.21129 z m 2.864941,0 v 1.21181 h 2.29185 v -1.21181 z m 8.594824,0 v 1.21129 h 2.29185 v -1.21129 z m 3.438033,0 v 1.21129 h 2.29185 v -1.21129 z m 2.865459,0 0.286287,1.21181 h 2.29185 l -0.286288,-1.21181 z m 2.864424,5.1e-4 0.286804,1.21182 h 3.151229 l 0.286804,-1.21182 z m -23.77891,2.4226 0.286287,1.21181 h 2.29185 l -0.286287,-1.21181 z m 3.437516,0 0.286804,1.21181 h 2.29185 l -0.286287,-1.21181 z m 2.865458,0 0.286288,1.21181 6.875549,5.1e-4 0.286287,-1.21181 z m 8.021733,0 -0.286804,1.21181 h 2.291849 l 0.286805,-1.21181 z m 3.437516,0 -0.286287,1.21181 h 2.291849 l 0.286805,-1.21181 z m -17.189648,2.4231 0.286804,1.21182 h 2.29185 l -0.286805,-1.21182 z m 3.438033,0 0.286804,1.21182 h 2.29185 l -0.286804,-1.21182 z m 2.864941,0 0.286804,1.21182 h 5.729366 l 0.286288,-1.21182 z m 6.876066,0 -0.286804,1.2113 h 2.292367 l 0.286287,-1.2113 z m 3.438033,0 -0.286804,1.2113 h 2.29185 l 0.286804,-1.2113 z" />
  </g>
</svg>
